<?xml version="1.0" standalone="no"?><!DOCTYPE svg PUBLIC "-//W3C//DTD SVG 1.1//EN" "http://www.w3.org/Graphics/SVG/1.1/DTD/svg11.dtd"><svg t="1641237155437" class="icon" viewBox="0 0 1024 1024" version="1.1" xmlns="http://www.w3.org/2000/svg" p-id="1356" xmlns:xlink="http://www.w3.org/1999/xlink" width="200" height="200"><defs><style type="text/css"></style></defs><path d="M671.515569 907.0592c-19.6096 0.003938-38.144-11.791754-45.796431-31.133538-9.999754-25.280985 2.386708-53.886031 27.671631-63.889724 71.026215-28.093046 154.115938-41.546831 247.485046-40.227446V216.158523c-104.128985 1.453292-187.651938 18.877046-248.772923 51.956185-23.898585 12.933908-53.783631 4.048738-66.725415-19.861662-12.941785-23.914338-4.0448-53.787569 19.8656-66.729354 85.665477-46.359631 202.153354-67.674585 346.340431-63.373784 26.604308 0.795569 47.757785 22.591015 47.757784 49.211077V823.177846a49.230769 49.230769 0 0 1-52.680861 49.112616c-100.265354-7.053785-186.7264 3.485538-257.051569 31.30683a49.175631 49.175631 0 0 1-18.093293 3.461908z" fill="#B0A7F7" p-id="1357"></path><path d="M512.441108 951.646523c-15.442708 0-30.160738-7.227077-39.455508-20.413046-4.923077-6.010092-103.888738-121.844185-383.279262-121.844185-27.1872 0-49.230769-22.043569-49.230769-49.230769V167.353108c0-27.191138 22.043569-49.230769 49.230769-49.23077 159.547077 0 285.3376 29.573908 373.874216 87.898585 71.640615 47.194585 92.644431 97.559631 94.806646 103.144369 2.185846 5.663508 3.308308 11.677538 3.308308 17.746708v574.893292c0 21.519754-13.599508 41.074215-34.134646 47.505723a50.463508 50.463508 0 0 1-15.119754 2.335508z m-373.504-239.592369c155.8528 7.223138 259.690338 48.112246 324.296861 86.843077V339.133046c-6.919877-10.822892-24.493292-33.2288-62.137107-56.154584-44.622769-27.179323-125.219446-59.041477-262.159754-65.299693v494.375385z" fill="#594BC8" p-id="1358"></path></svg>